# Wavefront Obj file
# 
# verts: 48 uv-s: 144
mtllib floorUV.mtl

g object1

v 7.853693 3.882147 -48.999996
v 7.853693 3.882147 0.000000
v 4.853693 3.882147 0.000000
v 4.853693 3.882147 -48.999996
v 4.853693 2.882147 -48.999996
v 4.853693 2.882147 0.000000
v 0.000000 2.882147 -48.999996
v 0.000000 2.882147 0.000000
v 0.000000 -0.117853 -48.999996
v 0.000000 -0.117853 0.000000
v 71.000000 -0.117853 -48.999996
v 71.000000 -0.117853 0.000000
v 71.000000 2.882147 -48.999996
v 71.000000 2.882147 0.000000
v 67.853691 2.882147 0.000000
v 67.853691 2.882147 -48.999996
v 67.853691 3.882147 -48.999996
v 67.853691 3.882147 0.000000
v 64.853691 3.882147 0.000000
v 64.853691 3.882147 -48.999996
v 64.853691 2.882147 -48.999996
v 64.853691 2.882147 0.000000
v 52.853687 2.882147 -48.999996
v 52.853687 2.882147 0.000000
v 52.853687 3.882147 -48.999996
v 52.853687 3.882147 0.000000
v 49.853691 3.882147 0.000000
v 49.853691 3.882147 -48.999996
v 49.853691 2.882147 -48.999996
v 49.853691 2.882147 0.000000
v 37.853691 2.882147 -48.999996
v 37.853691 2.882147 0.000000
v 37.853691 3.882147 -48.999996
v 37.853691 3.882147 0.000000
v 34.853687 3.882147 0.000000
v 34.853687 3.882147 -48.999996
v 34.853687 2.882147 -48.999996
v 34.853687 2.882147 0.000000
v 22.853693 2.882147 -48.999996
v 22.853693 2.882147 0.000000
v 22.853693 3.882147 -48.999996
v 22.853693 3.882147 0.000000
v 19.853693 3.882147 0.000000
v 19.853693 3.882147 -48.999996
v 19.853693 2.882147 -48.999996
v 19.853693 2.882147 0.000000
v 7.853693 2.882147 0.000000
v 7.853693 2.882147 -48.999996
# 48 positions

vt 0.010000 0.185847
vt 0.459271 0.185847
vt 0.459271 0.213353
vt 0.010000 0.213353
vt 0.936653 0.540729
vt 0.945822 0.540729
vt 0.936653 0.990000
vt 0.945822 0.990000
vt 0.465648 0.871452
vt 0.465648 0.826949
vt 0.914919 0.826949
vt 0.914919 0.871452
vt 0.459271 0.077177
vt 0.459271 0.104684
vt 0.010000 0.077177
vt 0.010000 0.104684
vt 0.459271 0.990000
vt 0.010000 0.990000
vt 0.459271 0.339015
vt 0.010000 0.339015
vt 0.236455 0.177789
vt 0.236455 0.150282
vt 0.685726 0.177789
vt 0.685726 0.150282
vt 0.010000 0.141590
vt 0.010000 0.112742
vt 0.459271 0.141590
vt 0.459271 0.112742
vt 0.919581 0.315487
vt 0.928750 0.315487
vt 0.919581 0.764758
vt 0.928750 0.764758
vt 0.893185 0.312298
vt 0.893185 0.761569
vt 0.865679 0.761569
vt 0.865679 0.312298
vt 0.901089 0.315487
vt 0.910257 0.315487
vt 0.901089 0.764758
vt 0.910257 0.764758
vt 0.577056 0.761570
vt 0.467031 0.761570
vt 0.467031 0.312298
vt 0.577056 0.312298
vt 0.236455 0.068564
vt 0.236455 0.059395
vt 0.685726 0.068564
vt 0.685726 0.059395
vt 0.914919 0.818105
vt 0.465648 0.818105
vt 0.465648 0.790598
vt 0.914919 0.790598
vt 0.465649 0.782540
vt 0.465649 0.773372
vt 0.914919 0.782540
vt 0.914919 0.773372
vt 0.695605 0.761570
vt 0.585579 0.761570
vt 0.585579 0.312298
vt 0.695605 0.312298
vt 0.236455 0.050782
vt 0.236455 0.041613
vt 0.685726 0.050782
vt 0.685726 0.041613
vt 0.822056 0.312298
vt 0.822056 0.761570
vt 0.794551 0.761570
vt 0.794551 0.312298
vt 0.459272 0.023831
vt 0.459272 0.032999
vt 0.010000 0.023831
vt 0.010000 0.032999
vt 0.465648 0.990000
vt 0.465648 0.879976
vt 0.914919 0.879976
vt 0.914919 0.990000
vt 0.955146 0.540728
vt 0.964315 0.540728
vt 0.955146 0.990000
vt 0.964315 0.990000
vt 0.857621 0.312298
vt 0.857621 0.761569
vt 0.830115 0.761569
vt 0.830115 0.312298
vt 0.946532 0.534353
vt 0.937364 0.534353
vt 0.946532 0.085081
vt 0.937364 0.085081
vt 0.010000 0.331435
vt 0.010000 0.221411
vt 0.459271 0.331435
vt 0.459271 0.221411
vt 0.712677 0.343394
vt 0.703508 0.343394
vt 0.703508 0.315887
vt 0.740183 0.662960
vt 0.740183 0.011976
vt 0.712677 0.315887
vt 0.712677 0.205862
vt 0.703508 0.178356
vt 0.712677 0.178356
vt 0.703508 0.205862
vt 0.712677 0.068330
vt 0.703508 0.040824
vt 0.712677 0.040824
vt 0.703508 0.068330
vt 0.712677 0.011976
vt 0.712677 0.480926
vt 0.712677 0.453419
vt 0.703508 0.453419
vt 0.703508 0.480926
vt 0.712677 0.590951
vt 0.712677 0.618458
vt 0.703508 0.590951
vt 0.703508 0.618458
vt 0.712677 0.662960
vt 0.963604 0.534353
vt 0.954435 0.534353
vt 0.963604 0.085081
vt 0.954435 0.085081
vt 0.749817 0.357073
vt 0.749817 0.329566
vt 0.758986 0.329566
vt 0.786492 0.660985
vt 0.786492 0.010000
vt 0.758986 0.219541
vt 0.758986 0.192035
vt 0.749817 0.219541
vt 0.749817 0.192035
vt 0.758986 0.082009
vt 0.749817 0.082009
vt 0.758986 0.054503
vt 0.749817 0.054503
vt 0.758986 0.010000
vt 0.758986 0.467098
vt 0.758986 0.357073
vt 0.758986 0.494605
vt 0.749817 0.494605
vt 0.749817 0.467098
vt 0.758986 0.604630
vt 0.758986 0.632137
vt 0.749817 0.632137
vt 0.749817 0.604630
vt 0.758986 0.660985
# 144 texture coordinates

vn 0.000000 1.000000 0.000000
vn 0.000000 1.000000 0.000000
vn 0.000000 1.000000 0.000000
vn 0.000000 1.000000 0.000000
vn -1.000000 0.000000 0.000000
vn -1.000000 0.000000 0.000000
vn -1.000000 0.000000 0.000000
vn -1.000000 0.000000 0.000000
vn 0.000000 1.000000 0.000000
vn 0.000000 1.000000 0.000000
vn 0.000000 1.000000 0.000000
vn 0.000000 1.000000 0.000000
vn -1.000000 0.000000 0.000000
vn -1.000000 0.000000 0.000000
vn -1.000000 0.000000 0.000000
vn -1.000000 0.000000 0.000000
vn 0.000000 -1.000000 0.000000
vn 0.000000 -1.000000 0.000000
vn 0.000000 -1.000000 0.000000
vn 0.000000 -1.000000 0.000000
vn 1.000000 0.000000 0.000000
vn 1.000000 0.000000 0.000000
vn 1.000000 0.000000 0.000000
vn 1.000000 0.000000 0.000000
vn 0.000000 1.000000 0.000000
vn 0.000000 1.000000 0.000000
vn 0.000000 1.000000 0.000000
vn 0.000000 1.000000 0.000000
vn 1.000000 0.000000 0.000000
vn 1.000000 0.000000 0.000000
vn 1.000000 0.000000 0.000000
vn 1.000000 0.000000 0.000000
vn 0.000000 1.000000 0.000000
vn 0.000000 1.000000 0.000000
vn 0.000000 1.000000 0.000000
vn 0.000000 1.000000 0.000000
vn -1.000000 0.000000 0.000000
vn -1.000000 0.000000 0.000000
vn -1.000000 0.000000 0.000000
vn -1.000000 0.000000 0.000000
vn 0.000000 1.000000 0.000000
vn 0.000000 1.000000 0.000000
vn 0.000000 1.000000 0.000000
vn 0.000000 1.000000 0.000000
vn 1.000000 0.000000 0.000000
vn 1.000000 0.000000 0.000000
vn 1.000000 0.000000 0.000000
vn 1.000000 0.000000 0.000000
vn 0.000000 1.000000 0.000000
vn 0.000000 1.000000 0.000000
vn 0.000000 1.000000 0.000000
vn 0.000000 1.000000 0.000000
vn -1.000000 0.000000 0.000000
vn -1.000000 0.000000 0.000000
vn -1.000000 0.000000 0.000000
vn -1.000000 0.000000 0.000000
vn 0.000000 1.000000 0.000000
vn 0.000000 1.000000 0.000000
vn 0.000000 1.000000 0.000000
vn 0.000000 1.000000 0.000000
vn 1.000000 0.000000 0.000000
vn 1.000000 0.000000 0.000000
vn 1.000000 0.000000 0.000000
vn 1.000000 0.000000 0.000000
vn 0.000000 1.000000 0.000000
vn 0.000000 1.000000 0.000000
vn 0.000000 1.000000 0.000000
vn 0.000000 1.000000 0.000000
vn -1.000000 0.000000 0.000000
vn -1.000000 0.000000 0.000000
vn -1.000000 0.000000 0.000000
vn -1.000000 0.000000 0.000000
vn 0.000000 1.000000 0.000000
vn 0.000000 1.000000 0.000000
vn 0.000000 1.000000 0.000000
vn 0.000000 1.000000 0.000000
vn 1.000000 0.000000 0.000000
vn 1.000000 0.000000 0.000000
vn 1.000000 0.000000 0.000000
vn 1.000000 0.000000 0.000000
vn 0.000000 1.000000 0.000000
vn 0.000000 1.000000 0.000000
vn 0.000000 1.000000 0.000000
vn 0.000000 1.000000 0.000000
vn -1.000000 0.000000 0.000000
vn -1.000000 0.000000 0.000000
vn -1.000000 0.000000 0.000000
vn -1.000000 0.000000 0.000000
vn 0.000000 1.000000 0.000000
vn 0.000000 1.000000 0.000000
vn 0.000000 1.000000 0.000000
vn 0.000000 1.000000 0.000000
vn 0.000000 0.000000 -1.000000
vn 0.000000 0.000000 -1.000000
vn 0.000000 0.000000 -1.000000
vn 0.000000 0.000000 -1.000000
vn 0.000000 0.000000 -1.000000
vn 0.000000 0.000000 -1.000000
vn 0.000000 0.000000 -1.000000
vn 0.000000 0.000000 -1.000000
vn 0.000000 0.000000 -1.000000
vn 0.000000 0.000000 -1.000000
vn 0.000000 0.000000 -1.000000
vn 0.000000 0.000000 -1.000000
vn 0.000000 0.000000 -1.000000
vn 0.000000 0.000000 -1.000000
vn 0.000000 0.000000 -1.000000
vn 0.000000 0.000000 -1.000000
vn 0.000000 0.000000 -1.000000
vn 0.000000 0.000000 -1.000000
vn 0.000000 0.000000 -1.000000
vn 0.000000 0.000000 -1.000000
vn 0.000000 0.000000 -1.000000
vn 0.000000 0.000000 -1.000000
vn 0.000000 0.000000 -1.000000
vn 0.000000 0.000000 -1.000000
vn 1.000000 0.000000 0.000000
vn 1.000000 0.000000 0.000000
vn 1.000000 0.000000 0.000000
vn 1.000000 0.000000 0.000000
vn 0.000000 0.000000 1.000000
vn 0.000000 0.000000 1.000000
vn 0.000000 0.000000 1.000000
vn 0.000000 0.000000 1.000000
vn 0.000000 0.000000 1.000000
vn 0.000000 0.000000 1.000000
vn 0.000000 0.000000 1.000000
vn 0.000000 0.000000 1.000000
vn 0.000000 0.000000 1.000000
vn 0.000000 0.000000 1.000000
vn 0.000000 0.000000 1.000000
vn 0.000000 0.000000 1.000000
vn 0.000000 0.000000 1.000000
vn 0.000000 0.000000 1.000000
vn 0.000000 0.000000 1.000000
vn 0.000000 0.000000 1.000000
vn 0.000000 0.000000 1.000000
vn 0.000000 0.000000 1.000000
vn 0.000000 0.000000 1.000000
vn 0.000000 0.000000 1.000000
vn 0.000000 0.000000 1.000000
vn 0.000000 0.000000 1.000000
vn 0.000000 0.000000 1.000000
vn 0.000000 0.000000 1.000000
# 144 normals

usemtl Default
s 1
f 4/1/4 3/2/3 2/3/2
f 4/1/4 2/3/2 1/4/1
s 2
f 4/5/5 5/6/6 3/7/8
f 5/6/6 6/8/7 3/7/8
s 3
f 8/9/12 6/10/11 5/11/10
f 8/9/12 5/11/10 7/12/9
s 4
f 7/13/13 9/14/14 8/15/16
f 9/14/14 10/16/15 8/15/16
s 5
f 11/17/17 12/18/18 9/19/20
f 12/18/18 10/20/19 9/19/20
s 6
f 14/21/24 12/22/23 13/23/21
f 12/22/23 11/24/22 13/23/21
s 7
f 13/25/28 16/26/27 14/27/25
f 16/26/27 15/28/26 14/27/25
s 8
f 18/29/32 15/30/31 17/31/29
f 15/30/31 16/32/30 17/31/29
s 9
f 20/33/36 19/34/35 18/35/34
f 20/33/36 18/35/34 17/36/33
s 10
f 20/37/37 21/38/38 19/39/40
f 21/38/38 22/40/39 19/39/40
s 11
f 24/41/44 22/42/43 21/43/42
f 24/41/44 21/43/42 23/44/41
s 12
f 26/45/48 24/46/47 25/47/45
f 24/46/47 23/48/46 25/47/45
s 13
f 28/49/52 27/50/51 26/51/50
f 28/49/52 26/51/50 25/52/49
s 14
f 28/53/53 29/54/54 27/55/56
f 29/54/54 30/56/55 27/55/56
s 15
f 32/57/60 30/58/59 29/59/58
f 32/57/60 29/59/58 31/60/57
s 16
f 34/61/64 32/62/63 33/63/61
f 32/62/63 31/64/62 33/63/61
s 17
f 36/65/68 35/66/67 34/67/66
f 36/65/68 34/67/66 33/68/65
s 18
f 36/69/69 37/70/70 35/71/72
f 37/70/70 38/72/71 35/71/72
s 19
f 40/73/76 38/74/75 37/75/74
f 40/73/76 37/75/74 39/76/73
s 20
f 42/77/80 40/78/79 41/79/77
f 40/78/79 39/80/78 41/79/77
s 21
f 44/81/84 43/82/83 42/83/82
f 44/81/84 42/83/82 41/84/81
s 22
f 44/85/85 45/86/86 43/87/88
f 45/86/86 46/88/87 43/87/88
s 23
f 45/89/92 48/90/91 46/91/89
f 48/90/91 47/92/90 46/91/89
s 24
f 37/93/103 36/94/104 33/95/105
f 9/96/93 37/93/103 11/97/116
f 31/98/106 29/99/107 11/97/116
f 29/99/107 25/100/109 23/101/110
f 29/99/107 28/102/108 25/100/109
f 29/99/107 23/101/110 11/97/116
f 23/101/110 21/103/111 11/97/116
f 21/103/111 17/104/113 16/105/114
f 21/103/111 20/106/112 17/104/113
f 21/103/111 16/105/114 11/97/116
f 16/105/114 13/107/115 11/97/116
f 9/96/93 45/108/99 39/109/102
f 45/108/99 41/110/101 39/109/102
f 45/108/99 44/111/100 41/110/101
f 9/96/93 48/112/98 45/108/99
f 5/113/95 1/114/97 48/112/98
f 5/113/95 4/115/96 1/114/97
f 9/96/93 5/113/95 48/112/98
f 9/96/93 7/116/94 5/113/95
f 37/93/103 31/98/106 11/97/116
f 9/96/93 39/109/102 37/93/103
f 37/93/103 33/95/105 31/98/106
s 25
f 2/117/120 47/118/119 1/119/117
f 47/118/119 48/120/118 1/119/117
s 26
f 34/121/133 35/122/132 38/123/131
f 12/124/144 38/123/131 10/125/121
f 40/126/130 46/127/127 10/125/121
f 42/128/129 43/129/128 46/127/127
f 40/126/130 42/128/129 46/127/127
f 46/127/127 47/130/126 10/125/121
f 47/130/126 2/131/125 6/132/123
f 2/131/125 3/133/124 6/132/123
f 47/130/126 6/132/123 10/125/121
f 6/132/123 8/134/122 10/125/121
f 12/124/144 30/135/135 32/136/134
f 24/137/138 26/138/137 30/135/135
f 26/138/137 27/139/136 30/135/135
f 12/124/144 24/137/138 30/135/135
f 12/124/144 22/140/139 24/137/138
f 15/141/142 18/142/141 22/140/139
f 18/142/141 19/143/140 22/140/139
f 12/124/144 15/141/142 22/140/139
f 12/124/144 14/144/143 15/141/142
f 12/124/144 32/136/134 38/123/131
f 38/123/131 40/126/130 10/125/121
f 32/136/134 34/121/133 38/123/131

# 92 faces
