# Wavefront Obj file
# 
# verts: 84 uv-s: 175
mtllib pipeTjointUV.mtl

g object1

v 0.000000 3.461282 0.099405
v 0.000000 4.745990 -0.140751
v 0.000000 5.857172 -0.828769
v 0.000000 6.644783 -1.871733
v 0.000000 7.002448 -3.128787
v 0.000000 6.881857 -4.430174
v 0.000000 6.299300 -5.600108
v 0.000000 5.333454 -6.480591
v 0.000000 4.114763 -6.952716
v 0.000000 2.807801 -6.952716
v 0.000000 1.589111 -6.480591
v 0.000000 0.623265 -5.600108
v 0.000000 0.040707 -4.430174
v 0.000000 -0.079884 -3.128787
v 0.000000 0.277781 -1.871733
v 0.000000 1.065392 -0.828769
v 0.000000 2.176574 -0.140751
v 0.000000 3.461282 -3.456933
v 19.354561 2.176574 -0.140751
v 19.354561 3.461282 0.099405
v 19.354561 1.065392 -0.828769
v 19.354561 0.277781 -1.871733
v 19.354561 -0.079884 -3.128787
v 8.704032 0.040708 -4.430181
v 9.677280 -0.095055 -3.456933
v 10.650518 0.040706 -4.430171
v 19.354561 0.040707 -4.430174
v 7.534127 0.623249 -5.600086
v 11.820440 0.623255 -5.600093
v 19.354561 0.623265 -5.600108
v 6.653627 1.589102 -6.480586
v 12.700935 1.589104 -6.480587
v 19.354561 1.589111 -6.480591
v 6.181498 2.807796 -6.952714
v 13.173062 2.807796 -6.952714
v 19.354561 2.807801 -6.952716
v 6.181498 4.114769 -6.952714
v 13.233618 3.461282 -7.013270
v 13.173062 4.114769 -6.952714
v 19.354561 4.114763 -6.952716
v 12.700935 5.333460 -6.480587
v 19.354561 5.333454 -6.480591
v 6.653627 5.333463 -6.480586
v 11.820440 6.299310 -5.600093
v 19.354561 6.299300 -5.600108
v 7.534127 6.299316 -5.600086
v 10.650518 6.881858 -4.430171
v 19.354561 6.881857 -4.430174
v 8.704032 6.881856 -4.430181
v 9.677280 7.017620 -3.456933
v 19.354561 7.002448 -3.128787
v 19.354561 6.644783 -1.871733
v 19.354561 5.857172 -0.828769
v 19.354561 4.745990 -0.140751
v 10.005440 -0.079883 -3.785092
v 11.262472 0.277777 -5.042124
v 12.305426 1.065373 -6.085080
v 6.367564 2.160008 -6.766649
v 12.993455 2.176556 -6.773107
v 6.120942 3.461282 -7.013270
v 12.993455 4.746009 -6.773107
v 6.367564 4.762557 -6.766649
v 12.305426 5.857192 -6.085080
v 11.262472 6.644788 -5.042124
v 10.005440 7.002447 -3.785092
v 12.993462 2.176574 -20.073683
v 13.233618 3.461282 -20.073683
v 12.305444 1.065392 -20.073683
v 11.262480 0.277781 -20.073683
v 10.005425 -0.079884 -20.073683
v 8.704038 0.040707 -20.073683
v 7.534106 0.623265 -20.073683
v 6.653621 1.589111 -20.073683
v 6.181497 2.807801 -20.073683
v 6.181497 4.114763 -20.073683
v 6.653621 5.333454 -20.073683
v 7.534106 6.299300 -20.073683
v 8.704038 6.881857 -20.073683
v 10.005425 7.002448 -20.073683
v 11.262480 6.644783 -20.073683
v 12.305444 5.857172 -20.073683
v 12.993462 4.745990 -20.073683
v 9.677280 3.461282 -20.073683
v 19.354561 3.461282 -3.456933
# 84 positions

vt 0.658062 0.388138
vt 0.664042 0.356146
vt 0.746621 0.388138
vt 0.681175 0.447799
vt 0.664042 0.420129
vt 0.707147 0.467412
vt 0.738449 0.476319
vt 0.770856 0.473316
vt 0.799989 0.458809
vt 0.821915 0.434758
vt 0.833672 0.404410
vt 0.833672 0.371865
vt 0.821915 0.341518
vt 0.799989 0.317466
vt 0.770856 0.302960
vt 0.738449 0.299957
vt 0.707147 0.308863
vt 0.681175 0.328476
vt 0.619414 0.673555
vt 0.585998 0.673555
vt 0.619414 0.170143
vt 0.648315 0.170143
vt 0.648315 0.673555
vt 0.514906 0.487954
vt 0.010000 0.515162
vt 0.010000 0.487954
vt 0.514906 0.515162
vt 0.010000 0.547955
vt 0.262453 0.556515
vt 0.514906 0.547955
vt 0.514906 0.581904
vt 0.287842 0.581905
vt 0.318362 0.612424
vt 0.514906 0.612425
vt 0.505023 0.953240
vt 0.326445 0.979162
vt 0.326445 0.953240
vt 0.492352 0.920531
vt 0.497345 0.937917
vt 0.490726 0.902992
vt 0.326445 0.885453
vt 0.492352 0.885453
vt 0.326445 0.852744
vt 0.505023 0.852744
vt 0.326445 0.826822
vt 0.704021 0.681638
vt 0.704020 0.485093
vt 0.734541 0.485093
vt 0.734541 0.712157
vt 0.768490 0.485093
vt 0.801283 0.990000
vt 0.768490 0.990000
vt 0.734541 0.762936
vt 0.759930 0.737547
vt 0.751369 0.746107
vt 0.326445 0.746107
vt 0.718577 0.778900
vt 0.326445 0.778900
vt 0.704021 0.793455
vt 0.691369 0.806107
vt 0.326445 0.806108
vt 0.010000 0.382571
vt 0.010000 0.353614
vt 0.364228 0.367262
vt 0.351925 0.399021
vt 0.010000 0.416050
vt 0.010000 0.449529
vt 0.351925 0.433079
vt 0.010000 0.478486
vt 0.364228 0.464838
vt 0.221100 0.990000
vt 0.193892 0.990000
vt 0.206544 0.612424
vt 0.253893 0.990000
vt 0.221100 0.597868
vt 0.253893 0.565076
vt 0.287842 0.990000
vt 0.990000 0.602306
vt 0.990000 0.990000
vt 0.964128 0.966415
vt 0.964128 0.602306
vt 0.948836 0.958752
vt 0.931484 0.953768
vt 0.931484 0.602306
vt 0.896475 0.602306
vt 0.913980 0.952146
vt 0.863831 0.602306
vt 0.879123 0.958752
vt 0.837959 0.602306
vt 0.863831 0.966415
vt 0.326445 0.712158
vt 0.326445 0.681637
vt 0.837959 0.990000
vt 0.896475 0.953768
vt 0.318363 0.990000
vt 0.237064 0.581904
vt 0.193892 0.625076
vt 0.374535 0.478486
vt 0.356606 0.449529
vt 0.350347 0.416050
vt 0.356606 0.382571
vt 0.374535 0.353614
vt 0.013382 0.979163
vt 0.010378 0.956443
vt 0.010000 0.944885
vt 0.734541 0.990000
vt 0.704020 0.990000
vt 0.020837 0.803232
vt 0.046427 0.979521
vt 0.032551 0.990000
vt 0.061991 0.971771
vt 0.046427 0.803232
vt 0.078716 0.803232
vt 0.078716 0.967012
vt 0.113345 0.967012
vt 0.096031 0.965407
vt 0.130070 0.971771
vt 0.145635 0.803232
vt 0.145635 0.979521
vt 0.171224 0.803232
vt 0.010000 0.612425
vt 0.010000 0.581904
vt 0.159511 0.990000
vt 0.113345 0.803232
vt 0.801283 0.485093
vt 0.828491 0.990000
vt 0.523681 0.170143
vt 0.552583 0.673555
vt 0.523681 0.673555
vt 0.552583 0.170143
vt 0.828491 0.485093
vt 0.528655 0.826822
vt 0.497345 0.868067
vt 0.326445 0.920531
vt 0.528655 0.979163
vt 0.013383 0.901530
vt 0.013004 0.913090
vt 0.010000 0.935814
vt 0.585998 0.170143
vt 0.098181 0.168496
vt 0.130172 0.174476
vt 0.098181 0.257054
vt 0.038519 0.191609
vt 0.066190 0.174476
vt 0.018906 0.217581
vt 0.010000 0.248883
vt 0.013003 0.281290
vt 0.027510 0.310423
vt 0.051561 0.332349
vt 0.081908 0.344105
vt 0.114453 0.344105
vt 0.144802 0.332349
vt 0.168852 0.310423
vt 0.183359 0.281290
vt 0.186362 0.248883
vt 0.177455 0.217581
vt 0.157842 0.191609
vt 0.282412 0.168496
vt 0.314404 0.174476
vt 0.282412 0.257054
vt 0.222751 0.191608
vt 0.250421 0.174476
vt 0.203138 0.217580
vt 0.194232 0.248883
vt 0.197235 0.281290
vt 0.211741 0.310423
vt 0.235792 0.332349
vt 0.266140 0.344105
vt 0.298685 0.344105
vt 0.329033 0.332349
vt 0.353084 0.310423
vt 0.367591 0.281290
vt 0.370593 0.248883
vt 0.361687 0.217580
vt 0.342074 0.191608
# 175 texture coordinates

vn -1.000000 0.000000 0.000000
vn -1.000000 0.000000 0.000000
vn -1.000000 0.000000 0.000000
vn -1.000000 0.000000 0.000000
vn -1.000000 0.000000 0.000000
vn -1.000000 0.000000 0.000000
vn -1.000000 0.000000 0.000000
vn -1.000000 0.000000 0.000000
vn -1.000000 0.000000 0.000000
vn -1.000000 0.000000 0.000000
vn -1.000000 0.000000 0.000000
vn -1.000000 0.000000 0.000000
vn -1.000000 0.000000 0.000000
vn -1.000000 0.000000 0.000000
vn -1.000000 0.000000 0.000000
vn -1.000000 0.000000 0.000000
vn -1.000000 0.000000 0.000000
vn -1.000000 0.000000 0.000000
vn 0.000000 -0.361244 0.932472
vn 0.000000 0.000000 1.000000
vn 0.000000 0.000000 1.000000
vn 0.000000 -0.361243 0.932472
vn 0.000000 -0.673696 0.739008
vn 0.000000 -0.673696 0.739008
vn 0.000000 -0.895163 0.445740
vn 0.000000 -0.895163 0.445739
vn -0.000226 -0.995733 0.092283
vn 0.000226 -0.995733 0.092283
vn -0.004211 -0.976555 -0.215226
vn -0.004197 -0.999604 -0.027811
vn 0.011652 -0.982959 -0.183457
vn 0.000414 -0.961835 -0.273630
vn -0.000000 -0.961826 -0.273663
vn 0.000000 -0.841084 -0.540905
vn -0.000000 -0.798017 -0.602635
vn 0.009187 -0.827914 -0.560779
vn 0.000535 -0.798047 -0.602595
vn 0.000000 -0.600503 -0.799623
vn -0.000635 -0.526487 -0.850183
vn 0.009577 -0.558776 -0.829263
vn 0.000636 -0.526488 -0.850182
vn -0.016534 -0.197933 -0.980076
vn 0.000000 -0.183750 -0.982973
vn 0.016781 -0.196717 -0.980317
vn -0.000000 -0.183750 -0.982973
vn -0.008867 0.202928 -0.979154
vn -0.000660 0.183818 -0.982960
vn 0.010626 -0.006871 -0.999920
vn 0.009110 0.201717 -0.979401
vn 0.000660 0.183818 -0.982960
vn 0.009577 0.558776 -0.829263
vn 0.000636 0.526488 -0.850182
vn 0.000000 0.600502 -0.799623
vn -0.000635 0.526487 -0.850183
vn 0.009187 0.827914 -0.560779
vn 0.000535 0.798047 -0.602595
vn 0.000000 0.841084 -0.540905
vn -0.000000 0.798017 -0.602635
vn 0.011652 0.982959 -0.183457
vn 0.000414 0.961835 -0.273630
vn -0.004211 0.976555 -0.215226
vn -0.000000 0.961826 -0.273663
vn -0.004197 0.999604 -0.027811
vn -0.000226 0.995733 0.092283
vn 0.000226 0.995733 0.092283
vn 0.000000 0.895163 0.445739
vn 0.000000 0.895163 0.445739
vn 0.000000 0.673696 0.739008
vn 0.000000 0.673696 0.739008
vn 0.000000 0.361243 0.932472
vn 0.000000 0.361243 0.932472
vn 0.707106 0.000011 0.707107
vn 0.004155 -0.912732 -0.408539
vn 0.005632 -0.696893 -0.717153
vn -0.007657 -0.378391 -0.925614
vn 0.007901 -0.375867 -0.926640
vn -0.010626 -0.006871 -0.999920
vn 0.007901 0.375867 -0.926640
vn -0.007657 0.378391 -0.925614
vn 0.005632 0.696892 -0.717154
vn 0.004155 0.912732 -0.408538
vn 0.707106 -0.000011 0.707108
vn 0.932444 -0.361287 -0.004467
vn 0.999990 0.000000 -0.004544
vn 1.000000 0.000000 0.000000
vn 0.925322 -0.379183 -0.000000
vn 0.738944 -0.673754 -0.004261
vn 0.715854 -0.698250 -0.000000
vn 0.444546 -0.895753 -0.002067
vn 0.400750 -0.916173 -0.005224
vn 0.092265 -0.995734 -0.000109
vn -0.004690 -0.999310 -0.036843
vn -0.273663 -0.961826 -0.000000
vn -0.183222 -0.983026 -0.009510
vn -0.602635 -0.798017 -0.000000
vn -0.540905 -0.841084 0.000000
vn -0.849452 -0.527661 -0.002242
vn -0.799623 -0.600503 0.000000
vn -0.982958 -0.183776 -0.004520
vn -0.980799 -0.195021 -0.000000
vn -0.982958 0.183776 -0.004520
vn -0.980799 0.195021 -0.000000
vn -0.849452 0.527660 -0.002242
vn -0.799623 0.600503 0.000000
vn -0.602635 0.798017 -0.000000
vn -0.540905 0.841084 0.000000
vn -0.273663 0.961826 -0.000000
vn -0.183222 0.983025 -0.009510
vn 0.092265 0.995735 -0.000109
vn -0.004690 0.999310 -0.036843
vn 0.444546 0.895754 -0.002066
vn 0.400749 0.916173 -0.005224
vn 0.738944 0.673754 -0.004261
vn 0.715855 0.698250 -0.000000
vn 0.932444 0.361287 -0.004467
vn 0.925322 0.379184 -0.000000
vn 0.981079 -0.193607 -0.000139
vn 0.835533 -0.549440 -0.000132
vn 0.571309 -0.820735 -0.000118
vn 0.230997 -0.972952 -0.002026
vn -0.924327 -0.381602 -0.000136
vn -1.000000 0.000000 -0.000140
vn -0.924327 0.381602 -0.000136
vn 0.230997 0.972952 -0.002026
vn 0.571309 0.820735 -0.000118
vn 0.835533 0.549440 -0.000132
vn 0.981079 0.193607 -0.000139
vn 0.000000 0.000000 -1.000000
vn 0.000000 0.000000 -1.000000
vn 0.000000 0.000000 -1.000000
vn 0.000000 0.000000 -1.000000
vn 0.000000 0.000000 -1.000000
vn 0.000000 0.000000 -1.000000
vn 0.000000 0.000000 -1.000000
vn 0.000000 0.000000 -1.000000
vn 0.000000 0.000000 -1.000000
vn 0.000000 0.000000 -1.000000
vn 0.000000 0.000000 -1.000000
vn 0.000000 0.000000 -1.000000
vn 0.000000 0.000000 -1.000000
vn 0.000000 0.000000 -1.000000
vn 0.000000 0.000000 -1.000000
vn 0.000000 0.000000 -1.000000
vn 0.000000 0.000000 -1.000000
vn 0.000000 0.000000 -1.000000
vn 1.000000 0.000000 0.000000
vn 1.000000 0.000000 0.000000
vn 1.000000 0.000000 0.000000
vn 1.000000 0.000000 0.000000
vn 1.000000 0.000000 0.000000
vn 1.000000 0.000000 0.000000
vn 1.000000 0.000000 0.000000
vn 1.000000 0.000000 0.000000
vn 1.000000 0.000000 0.000000
vn 1.000000 0.000000 0.000000
vn 1.000000 0.000000 0.000000
vn 1.000000 0.000000 0.000000
vn 1.000000 0.000000 0.000000
vn 1.000000 0.000000 0.000000
vn 1.000000 0.000000 0.000000
vn 1.000000 0.000000 0.000000
vn 1.000000 0.000000 0.000000
vn 1.000000 0.000000 0.000000
# 163 normals

usemtl Default
s 1
f 1/1/1 2/2/2 18/3/18
f 16/4/16 17/5/17 18/3/18
f 15/6/15 16/4/16 18/3/18
f 14/7/14 15/6/15 18/3/18
f 13/8/13 14/7/14 18/3/18
f 12/9/12 13/8/13 18/3/18
f 11/10/11 12/9/12 18/3/18
f 10/11/10 11/10/11 18/3/18
f 9/12/9 10/11/10 18/3/18
f 8/13/8 9/12/9 18/3/18
f 7/14/7 8/13/8 18/3/18
f 6/15/6 7/14/7 18/3/18
f 5/16/5 6/15/6 18/3/18
f 4/17/4 5/16/5 18/3/18
f 3/18/3 4/17/4 18/3/18
f 2/2/2 3/18/3 18/3/18
f 17/5/17 1/1/1 18/3/18
s 2
f 19/19/19 20/20/20 17/21/22
f 17/21/22 16/22/23 21/23/24
f 16/24/23 22/25/26 21/26/24
f 15/27/25 23/28/28 22/25/26
f 25/29/30 23/28/28 14/30/27
f 14/30/27 13/31/33 24/32/29
f 28/33/34 13/31/33 12/34/35
f 31/35/38 12/36/35 11/37/39
f 11/37/39 34/38/42 58/39/75
f 60/40/77 34/38/42 9/41/47
f 37/42/46 9/41/47 8/43/54
f 43/44/53 8/43/54 7/45/58
f 46/46/57 7/47/58 6/48/62
f 49/49/61 6/48/62 5/50/64
f 5/50/64 52/51/67 51/52/65
f 51/52/65 47/53/59 50/54/63
f 47/103/59 65/104/82 50/105/63
f 64/57/81 47/53/59 48/106/60
f 48/106/60 45/107/56 44/59/55
f 63/60/80 44/59/55 45/107/56
f 45/108/56 41/109/51 63/110/80
f 61/111/78 41/109/51 42/112/52
f 42/112/52 40/113/50 39/114/49
f 35/115/44 38/116/48 40/113/50
f 59/117/76 35/115/44 33/118/41
f 32/119/40 33/118/41 30/120/37
f 29/73/36 57/97/74 30/121/37
f 56/75/73 29/73/36 27/122/32
f 26/96/31 56/75/73 27/122/32
f 29/73/36 30/121/37 27/122/32
f 57/123/74 32/119/40 30/120/37
f 32/119/40 59/117/76 33/118/41
f 35/115/44 36/124/45 33/118/41
f 38/116/48 39/114/49 40/113/50
f 40/113/50 36/124/45 35/115/44
f 42/112/52 39/114/49 61/111/78
f 45/108/56 42/112/52 41/109/51
f 48/106/60 44/59/55 64/57/81
f 51/52/65 48/106/60 47/53/59
f 4/125/66 53/126/69 52/51/67
f 3/127/68 54/128/71 53/129/69
f 3/127/68 2/130/70 54/128/71
f 4/125/66 3/131/68 53/126/69
f 5/50/64 4/125/66 52/51/67
f 50/54/63 5/50/64 51/52/65
f 50/54/63 49/49/61 5/50/64
f 49/49/61 46/46/57 6/48/62
f 46/132/57 43/44/53 7/45/58
f 43/44/53 62/133/79 8/43/54
f 62/133/79 37/42/46 8/43/54
f 9/41/47 37/42/46 60/40/77
f 34/38/42 10/134/43 9/41/47
f 11/37/39 10/134/43 34/38/42
f 58/39/75 31/35/38 11/37/39
f 31/35/38 28/135/34 12/36/35
f 28/33/34 24/32/29 13/31/33
f 14/30/27 24/32/29 25/29/30
f 25/136/30 55/137/72 26/138/31
f 25/29/30 26/96/31 23/28/28
f 26/96/31 27/122/32 23/28/28
f 15/27/25 14/30/27 23/28/28
f 16/24/23 15/27/25 22/25/26
f 2/130/70 20/20/20 54/128/71
f 2/130/70 1/139/21 20/20/20
f 20/20/20 1/139/21 17/21/22
f 17/21/22 21/23/24 19/19/19
s 3
f 49/49/108 50/54/63 65/55/110
f 79/56/109 65/55/110 47/53/124
f 47/53/124 64/57/112 79/56/109
f 80/58/111 64/57/112 44/59/125
f 44/59/125 63/60/114 81/61/113
f 82/62/115 81/63/113 41/64/126
f 39/65/127 67/66/84 82/62/115
f 66/67/83 67/66/84 35/68/117
f 68/69/87 66/67/83 32/70/118
f 69/71/89 68/72/87 29/73/119
f 70/74/91 69/71/89 56/75/90
f 70/74/91 55/76/92 24/32/94
f 71/77/93 24/32/94 28/33/96
f 72/78/95 28/79/96 31/80/98
f 73/81/97 31/80/98 58/82/121
f 58/82/121 34/83/100 74/84/99
f 75/85/101 74/84/99 60/86/122
f 76/87/103 75/85/101 62/88/123
f 77/89/105 76/87/103 43/90/104
f 78/91/107 77/92/105 46/46/106
f 77/89/105 43/90/104 46/93/106
f 62/88/123 43/90/104 76/87/103
f 75/85/101 37/94/102 62/88/123
f 60/86/122 37/94/102 75/85/101
f 74/84/99 34/83/100 60/86/122
f 74/84/99 73/81/97 58/82/121
f 73/81/97 72/78/95 31/80/98
f 72/95/95 71/77/93 28/33/96
f 24/32/94 71/77/93 70/74/91
f 70/74/91 26/96/120 55/76/92
f 70/74/91 56/75/90 26/96/120
f 69/71/89 29/73/119 56/75/90
f 68/72/87 57/97/88 29/73/119
f 32/70/118 57/98/88 68/69/87
f 66/67/83 59/99/86 32/70/118
f 35/68/117 59/99/86 66/67/83
f 67/66/84 38/100/85 35/68/117
f 39/65/127 38/100/85 67/66/84
f 82/62/115 61/101/116 39/65/127
f 41/64/126 61/101/116 82/62/115
f 81/63/113 63/102/114 41/64/126
f 44/59/125 81/61/113 80/58/111
f 64/57/112 80/58/111 79/56/109
f 79/56/109 49/49/108 65/55/110
f 79/56/109 78/91/107 49/49/108
f 78/91/107 46/46/106 49/49/108
f 55/76/92 25/29/30 24/32/94
s 4
f 67/140/128 66/141/129 83/142/145
f 81/143/143 82/144/144 83/142/145
f 80/145/142 81/143/143 83/142/145
f 79/146/141 80/145/142 83/142/145
f 78/147/140 79/146/141 83/142/145
f 77/148/139 78/147/140 83/142/145
f 76/149/138 77/148/139 83/142/145
f 75/150/137 76/149/138 83/142/145
f 74/151/136 75/150/137 83/142/145
f 73/152/135 74/151/136 83/142/145
f 72/153/134 73/152/135 83/142/145
f 71/154/133 72/153/134 83/142/145
f 70/155/132 71/154/133 83/142/145
f 69/156/131 70/155/132 83/142/145
f 68/157/130 69/156/131 83/142/145
f 66/141/129 68/157/130 83/142/145
f 82/144/144 67/140/128 83/142/145
s 5
f 20/158/146 19/159/147 84/160/163
f 53/161/161 54/162/162 84/160/163
f 52/163/160 53/161/161 84/160/163
f 51/164/159 52/163/160 84/160/163
f 48/165/158 51/164/159 84/160/163
f 45/166/157 48/165/158 84/160/163
f 42/167/156 45/166/157 84/160/163
f 40/168/155 42/167/156 84/160/163
f 36/169/154 40/168/155 84/160/163
f 33/170/153 36/169/154 84/160/163
f 30/171/152 33/170/153 84/160/163
f 27/172/151 30/171/152 84/160/163
f 23/173/150 27/172/151 84/160/163
f 22/174/149 23/173/150 84/160/163
f 21/175/148 22/174/149 84/160/163
f 19/159/147 21/175/148 84/160/163
f 54/162/162 20/158/146 84/160/163

# 164 faces
